<svg width="400" height="300" viewBox="0 0 400 300" xmlns="http://www.w3.org/2000/svg">
  <!-- Background -->
  <defs>
    <linearGradient id="laBg" x1="0%" y1="0%" x2="100%" y2="100%">
      <stop offset="0%" style="stop-color:#2563eb;stop-opacity:1" />
      <stop offset="100%" style="stop-color:#7c3aed;stop-opacity:1" />
    </linearGradient>
  </defs>
  <rect width="400" height="300" fill="url(#laBg)"/>
  
  <!-- Los Angeles skyline silhouette -->
  <rect x="50" y="180" width="15" height="80" fill="white" opacity="0.8"/>
  <rect x="80" y="160" width="20" height="100" fill="white" opacity="0.9"/>
  <rect x="120" y="140" width="25" height="120" fill="white" opacity="0.8"/>
  <rect x="160" y="170" width="18" height="90" fill="white" opacity="0.7"/>
  <rect x="190" y="150" width="22" height="110" fill="white" opacity="0.9"/>
  <rect x="230" y="165" width="16" height="95" fill="white" opacity="0.8"/>
  <rect x="260" y="145" width="28" height="115" fill="white" opacity="0.9"/>
  <rect x="300" y="175" width="20" height="85" fill="white" opacity="0.7"/>
  <rect x="330" y="155" width="18" height="105" fill="white" opacity="0.8"/>
  
  <!-- Medical cross symbols on buildings -->
  <g fill="#ef4444" opacity="0.9">
    <rect x="87" y="170" width="6" height="2"/>
    <rect x="89" y="168" width="2" height="6"/>
    
    <rect x="267" y="155" width="6" height="2"/>
    <rect x="269" y="153" width="2" height="6"/>
    
    <rect x="197" y="160" width="6" height="2"/>
    <rect x="199" y="158" width="2" height="6"/>
  </g>
  
  <!-- UCLA, USC, Cedars badges -->
  <circle cx="100" cy="100" r="25" fill="white" opacity="0.9"/>
  <text x="100" y="95" text-anchor="middle" font-family="Arial, sans-serif" font-size="10" font-weight="bold" fill="#2563eb">UCLA</text>
  <text x="100" y="108" text-anchor="middle" font-family="Arial, sans-serif" font-size="8" fill="#2563eb">Sleep</text>
  
  <circle cx="200" cy="80" r="25" fill="white" opacity="0.9"/>
  <text x="200" y="75" text-anchor="middle" font-family="Arial, sans-serif" font-size="10" font-weight="bold" fill="#dc2626">USC</text>
  <text x="200" y="88" text-anchor="middle" font-family="Arial, sans-serif" font-size="8" fill="#dc2626">Keck</text>
  
  <circle cx="300" cy="95" r="25" fill="white" opacity="0.9"/>
  <text x="300" y="88" text-anchor="middle" font-family="Arial, sans-serif" font-size="9" font-weight="bold" fill="#7c3aed">Cedars</text>
  <text x="300" y="100" text-anchor="middle" font-family="Arial, sans-serif" font-size="8" fill="#7c3aed">Sinai</text>
  <text x="300" y="110" text-anchor="middle" font-family="Arial, sans-serif" font-size="6" fill="#7c3aed">#5 in US</text>
  
  <!-- Sleep/medical icons -->
  <g stroke="white" stroke-width="2" fill="none" opacity="0.8">
    <!-- Stethoscope -->
    <circle cx="150" cy="40" r="8"/>
    <path d="M 150 32 Q 140 25 130 32"/>
    <path d="M 150 32 Q 160 25 170 32"/>
    <line x1="150" y1="48" x2="150" y2="65"/>
    <circle cx="150" cy="68" r="3" fill="white"/>
    
    <!-- Sleep zzz -->
    <path d="M 60 50 L 75 50 L 60 65 L 75 65" stroke-width="3"/>
    <path d="M 65 40 L 75 40 L 65 50 L 75 50" stroke-width="2"/>
    <path d="M 70 32 L 77 32 L 70 39 L 77 39" stroke-width="1.5"/>
  </g>
  
  <!-- Location pins -->
  <g fill="#fbbf24" opacity="0.9">
    <path d="M 75 120 C 75 115 80 110 85 110 C 90 110 95 115 95 120 C 95 125 85 135 85 135 C 85 135 75 125 75 120 Z"/>
    <circle cx="85" cy="120" r="3" fill="white"/>
    
    <path d="M 180 110 C 180 105 185 100 190 100 C 195 100 200 105 200 110 C 200 115 190 125 190 125 C 190 125 180 115 180 110 Z"/>
    <circle cx="190" cy="110" r="3" fill="white"/>
    
    <path d="M 280 125 C 280 120 285 115 290 115 C 295 115 300 120 300 125 C 300 130 290 140 290 140 C 290 140 280 130 280 125 Z"/>
    <circle cx="290" cy="125" r="3" fill="white"/>
  </g>
  
  <!-- Star rating -->
  <g fill="#fbbf24" opacity="0.9">
    <path d="M 350 40 L 352 46 L 358 46 L 353 50 L 355 56 L 350 52 L 345 56 L 347 50 L 342 46 L 348 46 Z"/>
    <path d="M 360 45 L 362 51 L 368 51 L 363 55 L 365 61 L 360 57 L 355 61 L 357 55 L 352 51 L 358 51 Z"/>
    <path d="M 370 38 L 372 44 L 378 44 L 373 48 L 375 54 L 370 50 L 365 54 L 367 48 L 362 44 L 368 44 Z"/>
  </g>
  <text x="365" y="70" text-anchor="middle" font-family="Arial, sans-serif" font-size="8" fill="white">Top Rated</text>
  
  <!-- Main title -->
  <text x="200" y="25" text-anchor="middle" font-family="Arial, sans-serif" font-size="18" font-weight="bold" fill="white">Top 10 LA Sleep Doctors</text>
  
  <!-- Bottom info -->
  <rect x="20" y="270" width="360" height="20" fill="white" opacity="0.9" rx="10"/>
  <text x="200" y="282" text-anchor="middle" font-family="Arial, sans-serif" font-size="12" font-weight="bold" fill="#2563eb">Sleep Centers • AASM Accredited • Expert Care</text>
</svg>